<svg width="20" height="21" viewBox="0 0 20 21" fill="none" xmlns="http://www.w3.org/2000/svg">
<path d="M9.78395 18.8983C5.1041 18.8983 1.29718 15.0914 1.29718 10.4116C1.29718 5.73173 5.1041 1.9248 9.78395 1.9248C14.4638 1.9248 18.2707 5.73173 18.2707 10.4116C18.2707 15.0914 14.4638 18.8983 9.78395 18.8983ZM9.78395 3.1372C5.77092 3.1372 2.50958 6.39854 2.50958 10.4116C2.50958 14.4246 5.77092 17.6859 9.78395 17.6859C13.797 17.6859 17.0583 14.4246 17.0583 10.4116C17.0583 6.39854 13.797 3.1372 9.78395 3.1372Z" fill="black"/>
<path d="M11.748 14.0488H7.80774C7.46827 14.0488 7.20154 13.7821 7.20154 13.4426C7.20154 13.1031 7.46827 12.8364 7.80774 12.8364H11.748C12.0875 12.8364 12.3542 13.1031 12.3542 13.4426C12.3542 13.7821 12.0875 14.0488 11.748 14.0488ZM11.748 11.624H7.80774C7.46827 11.624 7.20154 11.3573 7.20154 11.0178C7.20154 10.6783 7.46827 10.4116 7.80774 10.4116H11.748C12.0875 10.4116 12.3542 10.6783 12.3542 11.0178C12.3542 11.3573 12.0875 11.624 11.748 11.624Z" fill="black"/>
<path d="M9.78393 15.8674C9.44446 15.8674 9.17773 15.6007 9.17773 15.2612V11.0178C9.17773 10.6783 9.44446 10.4116 9.78393 10.4116C10.1234 10.4116 10.3901 10.6783 10.3901 11.0178V15.2612C10.3901 15.6007 10.1234 15.8674 9.78393 15.8674Z" fill="black"/>
<path d="M9.78393 11.624C9.671 11.6275 9.56011 11.5934 9.46871 11.527C9.33209 11.4418 9.23491 11.3058 9.19853 11.1489C9.16216 10.992 9.18956 10.8271 9.27472 10.6904L12.3057 5.84087C12.3929 5.70846 12.5283 5.61536 12.6832 5.58145C12.838 5.54754 13 5.5755 13.1345 5.65937C13.269 5.74324 13.3654 5.87637 13.4031 6.03034C13.4408 6.18431 13.4168 6.34691 13.3362 6.48344L10.3053 11.333C10.1961 11.5149 9.99004 11.624 9.79605 11.624H9.78393Z" fill="black"/>
<path d="M9.78394 11.6239C9.68066 11.6261 9.57872 11.6002 9.48903 11.549C9.39933 11.4977 9.32526 11.4231 9.27473 11.333L6.24374 6.48337C6.20061 6.41599 6.17138 6.34065 6.15778 6.26181C6.14418 6.18296 6.14649 6.10219 6.16456 6.02424C6.18263 5.9463 6.21611 5.87276 6.26302 5.80794C6.30993 5.74312 6.36933 5.68834 6.43773 5.64682C6.71658 5.46496 7.09242 5.54983 7.27428 5.8408L10.3053 10.6904C10.4871 10.9692 10.4023 11.3451 10.1113 11.5269C10.0143 11.5876 9.90518 11.6239 9.79606 11.6239H9.78394Z" fill="black"/>
</svg>
