<svg width="15" height="21" viewBox="0 0 15 21" fill="none" xmlns="http://www.w3.org/2000/svg">
<path d="M2.6962 1.89916C2.49523 1.89916 2.3025 1.98858 2.16039 2.14773C2.01829 2.30689 1.93845 2.52276 1.93845 2.74784V18.8727H3.45395V16.3267C3.45395 16.0373 3.55659 15.7597 3.7393 15.5551C3.922 15.3505 4.16981 15.2355 4.42819 15.2355H11.1397C11.3981 15.2355 11.6459 15.3505 11.8286 15.5551C12.0113 15.7597 12.1139 16.0373 12.1139 16.3267V18.8727H13.6294V10.0222C13.6294 9.79713 13.5496 9.58127 13.4075 9.42211C13.2654 9.26295 13.0726 9.17354 12.8717 9.17354H10.7067C10.4079 9.17354 10.1654 8.90196 10.1654 8.56734V2.74784C10.1654 2.63639 10.1458 2.52603 10.1077 2.42307C10.0697 2.3201 10.0138 2.22654 9.94348 2.14773C9.87312 2.06893 9.78959 2.00641 9.69765 1.96376C9.60572 1.92111 9.50718 1.89916 9.40767 1.89916H2.6962ZM1.3972 20.0851C1.09844 20.0851 0.855957 19.8135 0.855957 19.4789V2.74784C0.855957 2.20121 1.04984 1.67697 1.39495 1.29044C1.74006 0.903916 2.20814 0.686768 2.6962 0.686768H9.40767C9.89574 0.686768 10.3638 0.903916 10.7089 1.29044C11.054 1.67697 11.2479 2.20121 11.2479 2.74784V7.96114H12.8717C13.3597 7.96114 13.8278 8.17829 14.1729 8.56481C14.518 8.95134 14.7119 9.47558 14.7119 10.0222V19.4789C14.7119 19.8135 14.4694 20.0851 14.1707 20.0851H1.3972ZM4.53644 18.8727H7.24268V16.4479H4.53644V18.8727ZM8.32518 18.8727H11.0314V16.4479H8.32518V18.8727ZM5.18594 5.53635C5.18594 5.79359 5.0947 6.04029 4.9323 6.22218C4.76989 6.40408 4.54962 6.50627 4.31994 6.50627C4.09027 6.50627 3.87 6.40408 3.70759 6.22218C3.54519 6.04029 3.45395 5.79359 3.45395 5.53635C3.45395 5.27911 3.54519 5.03241 3.70759 4.85051C3.87 4.66862 4.09027 4.56643 4.31994 4.56643C4.54962 4.56643 4.76989 4.66862 4.9323 4.85051C5.0947 5.03241 5.18594 5.27911 5.18594 5.53635ZM4.31994 9.90097C4.54962 9.90097 4.76989 9.79879 4.9323 9.61689C5.0947 9.435 5.18594 9.18829 5.18594 8.93106C5.18594 8.67382 5.0947 8.42712 4.9323 8.24522C4.76989 8.06333 4.54962 7.96114 4.31994 7.96114C4.09027 7.96114 3.87 8.06333 3.70759 8.24522C3.54519 8.42712 3.45395 8.67382 3.45395 8.93106C3.45395 9.18829 3.54519 9.435 3.70759 9.61689C3.87 9.79879 4.09027 9.90097 4.31994 9.90097ZM5.18594 12.3258C5.18594 12.583 5.0947 12.8297 4.9323 13.0116C4.76989 13.1935 4.54962 13.2957 4.31994 13.2957C4.09027 13.2957 3.87 13.1935 3.70759 13.0116C3.54519 12.8297 3.45395 12.583 3.45395 12.3258C3.45395 12.0685 3.54519 11.8218 3.70759 11.6399C3.87 11.458 4.09027 11.3558 4.31994 11.3558C4.54962 11.3558 4.76989 11.458 4.9323 11.6399C5.0947 11.8218 5.18594 12.0685 5.18594 12.3258ZM7.78393 6.50627C8.01361 6.50627 8.23388 6.40408 8.39628 6.22218C8.55869 6.04029 8.64993 5.79359 8.64993 5.53635C8.64993 5.27911 8.55869 5.03241 8.39628 4.85051C8.23388 4.66862 8.01361 4.56643 7.78393 4.56643C7.55425 4.56643 7.33399 4.66862 7.17158 4.85051C7.00917 5.03241 6.91793 5.27911 6.91793 5.53635C6.91793 5.79359 7.00917 6.04029 7.17158 6.22218C7.33399 6.40408 7.55425 6.50627 7.78393 6.50627ZM8.64993 8.93106C8.64993 9.18829 8.55869 9.435 8.39628 9.61689C8.23388 9.79879 8.01361 9.90097 7.78393 9.90097C7.55425 9.90097 7.33399 9.79879 7.17158 9.61689C7.00917 9.435 6.91793 9.18829 6.91793 8.93106C6.91793 8.67382 7.00917 8.42712 7.17158 8.24522C7.33399 8.06333 7.55425 7.96114 7.78393 7.96114C8.01361 7.96114 8.23388 8.06333 8.39628 8.24522C8.55869 8.42712 8.64993 8.67382 8.64993 8.93106ZM7.78393 13.2957C8.01361 13.2957 8.23388 13.1935 8.39628 13.0116C8.55869 12.8297 8.64993 12.583 8.64993 12.3258C8.64993 12.0685 8.55869 11.8218 8.39628 11.6399C8.23388 11.458 8.01361 11.3558 7.78393 11.3558C7.55425 11.3558 7.33399 11.458 7.17158 11.6399C7.00917 11.8218 6.91793 12.0685 6.91793 12.3258C6.91793 12.583 7.00917 12.8297 7.17158 13.0116C7.33399 13.1935 7.55425 13.2957 7.78393 13.2957ZM12.1139 12.3258C12.1139 12.583 12.0227 12.8297 11.8603 13.0116C11.6979 13.1935 11.4776 13.2957 11.2479 13.2957C11.0182 13.2957 10.798 13.1935 10.6356 13.0116C10.4732 12.8297 10.3819 12.583 10.3819 12.3258C10.3819 12.0685 10.4732 11.8218 10.6356 11.6399C10.798 11.458 11.0182 11.3558 11.2479 11.3558C11.4776 11.3558 11.6979 11.458 11.8603 11.6399C12.0227 11.8218 12.1139 12.0685 12.1139 12.3258Z" fill="black"/>
</svg>
